<?xml version="1.0" encoding="UTF-8"?>
<svg version="1.1" xmlns="http://www.w3.org/2000/svg" width="1041" height="425">
<path d="M0 0 C26.36716719 23.72778443 46.85187647 62.56914538 48.89404297 98.35839844 C49.27297966 110.44087219 48.96230316 120.9345928 41.19873047 130.74121094 C32.03724161 140.13317751 19.15291647 140.31797902 6.67511368 140.50467682 C2.57315469 140.52564484 -1.52760765 140.49677828 -5.62939453 140.45996094 C-7.46274475 140.45104028 -9.29609881 140.44288149 -11.12945557 140.4354248 C-16.93689173 140.40754937 -22.74402143 140.35724568 -28.55126953 140.30371094 C-30.46118143 140.28708485 -32.37109354 140.27048312 -34.28100586 140.25390625 C-45.93561254 140.14988023 -57.58980424 140.01651916 -69.24401855 139.87591553 C-97.92887542 139.53121098 -126.61409379 139.20199341 -155.30126953 139.17871094 C-156.34714233 139.17621338 -157.39301514 139.17371582 -158.47058105 139.17114258 C-171.19865565 139.14556057 -183.84807108 139.49666258 -196.55126953 140.30371094 C-192.64138592 157.6784756 -185.1688383 170.86097157 -173.55126953 184.30371094 C-172.89513672 185.06296875 -172.23900391 185.82222656 -171.56298828 186.60449219 C-155.27960995 204.00364804 -131.04725016 214.7856843 -107.35205078 215.63964844 C-78.53170742 216.0465601 -52.70101003 207.01506704 -31.55126953 186.80371094 C-27.76761678 182.7813191 -24.53143279 178.40734128 -21.37548828 173.88183594 C-18.31740772 169.55992337 -15.59283692 166.01169124 -11.11376953 163.11621094 C-10.00195312 162.38337891 -10.00195312 162.38337891 -8.86767578 161.63574219 C-0.8839663 157.04477266 8.61592074 157.05967617 17.50732422 158.95605469 C24.14899771 161.31147314 28.07404059 165.22811863 31.57763672 171.24121094 C34.09253563 177.1957698 32.69639681 183.42149572 30.44873047 189.24121094 C27.57058378 195.56343203 23.76537136 200.89040993 19.44873047 206.30371094 C18.72298828 207.22152344 17.99724609 208.13933594 17.24951172 209.08496094 C-7.31079866 239.60318256 -37.42198632 259.32626462 -76.55126953 265.30371094 C-77.72560547 265.48675781 -78.89994141 265.66980469 -80.10986328 265.85839844 C-120.60542731 270.71031224 -163.42283671 259.85821948 -195.68408203 234.67871094 C-227.66445529 208.18815652 -246.67001244 173.03373344 -250.65722656 131.55810547 C-254.08075543 89.35115151 -244.64697743 48.32961835 -217.05126953 15.49121094 C-215.24506141 13.40343022 -213.407458 11.34709536 -211.55126953 9.30371094 C-210.77396484 8.44261719 -209.99666016 7.58152344 -209.19580078 6.69433594 C-187.58514042 -16.03848601 -157.90951421 -29.48785538 -127.55126953 -35.69628906 C-126.34986328 -35.9425 -125.14845703 -36.18871094 -123.91064453 -36.44238281 C-78.59406832 -43.94341426 -34.0162058 -30.2485541 0 0 Z M-171.66064453 41.38183594 C-184.84627944 54.78541522 -194.46099481 70.49123842 -196.55126953 89.30371094 C-133.52126953 89.30371094 -70.49126953 89.30371094 -5.55126953 89.30371094 C-8.01658777 74.5118015 -12.07070297 63.84451111 -21.55126953 52.30371094 C-22.24091797 51.46195313 -22.93056641 50.62019531 -23.64111328 49.75292969 C-41.8026726 28.63560122 -67.39369974 15.31946792 -95.05126953 12.55371094 C-123.34388221 10.89665987 -150.89463071 22.36086529 -171.66064453 41.38183594 Z " fill="#000000" transform="translate(381.55126953125,138.6962890625)"/>
<path d="M0 0 C4.31833242 3.63278113 8.52849521 7.34156418 12.6328125 11.21484375 C13.37015625 11.88773438 14.1075 12.560625 14.8671875 13.25390625 C47.49320054 44.14449306 57.30041521 89.07239546 58.6328125 132.21484375 C58.81659356 141.24365815 58.82204545 150.27433008 58.8359375 159.3046875 C58.83876488 160.56092989 58.84159225 161.81717228 58.84450531 163.11148262 C58.85784886 169.06429319 58.86779968 175.01709103 58.8717072 180.96991438 C58.87620395 187.77508137 58.89387112 194.58004914 58.9227078 201.38515562 C58.94705263 207.34174122 58.95465664 213.29827787 58.95638275 219.25491524 C58.959391 221.76453306 58.96735699 224.27415042 58.98056793 226.78373528 C59.14573845 260.52303861 59.14573845 260.52303861 49.0078125 270.90234375 C43.441434 275.21314815 36.93514808 276.54626991 30.0078125 276.15234375 C22.25622803 275.11369703 16.7332452 272.32375237 11.8828125 266.12890625 C6.37004832 257.68748611 6.47808175 247.96288115 6.6328125 238.21484375 C5.96636719 238.69953125 5.29992187 239.18421875 4.61328125 239.68359375 C2.65731008 241.10611824 0.69875544 242.5250941 -1.26171875 243.94140625 C-3.15371038 245.32648692 -5.03066849 246.73283358 -6.87890625 248.17578125 C-36.12149273 270.67007854 -75.54138082 279.92699736 -111.89477539 275.4440918 C-136.38091573 271.93570929 -160.54415845 263.2766115 -180.3671875 248.21484375 C-181.21925781 247.5703125 -182.07132813 246.92578125 -182.94921875 246.26171875 C-189.00903153 241.53301692 -194.74722699 236.4553214 -200.3671875 231.21484375 C-201.10710938 230.5290625 -201.84703125 229.84328125 -202.609375 229.13671875 C-229.15040325 203.63466313 -245.23443433 166.95544653 -246.3671875 130.21484375 C-246.40714844 129.29445313 -246.44710937 128.3740625 -246.48828125 127.42578125 C-247.54078253 82.47778532 -228.11177256 41.14546389 -197.5546875 9.08984375 C-144.87570776 -41.77261945 -57.65535678 -45.69066575 0 0 Z M-123.3671875 24.21484375 C-124.05699707 24.43446777 -124.74680664 24.6540918 -125.45751953 24.88037109 C-150.55527217 33.12185947 -171.13483338 48.21636978 -184.1640625 71.4140625 C-196.80543399 97.38100341 -198.27697728 127.9823182 -189.11010742 155.26342773 C-183.963267 169.80053736 -176.8099736 182.79692482 -166.3671875 194.21484375 C-165.59761719 195.065625 -164.82804688 195.91640625 -164.03515625 196.79296875 C-148.35501916 213.30904207 -126.32766952 224.26844395 -103.3671875 225.21484375 C-102.48289062 225.25480469 -101.59859375 225.29476562 -100.6875 225.3359375 C-82.35313793 225.74931171 -64.61573564 221.65511844 -48.3671875 213.21484375 C-47.37074219 212.70179688 -46.37429688 212.18875 -45.34765625 211.66015625 C-20.1245657 197.8420018 -3.51528681 174.43042362 4.6328125 147.21484375 C5.53705228 143.88231685 6.21538138 140.64023443 6.6328125 137.21484375 C6.74109375 136.41304688 6.849375 135.61125 6.9609375 134.78515625 C7.25964756 132.26184235 7.46797011 129.75027676 7.6328125 127.21484375 C7.71402344 126.05855469 7.71402344 126.05855469 7.796875 124.87890625 C8.76466634 96.98891936 -1.52284191 70.99437659 -19.92578125 50.34375 C-35.37790353 34.17396747 -57.5947663 21.39487383 -80.33300781 20.0378418 C-95.14513681 19.74620041 -109.1655805 19.66441361 -123.3671875 24.21484375 Z " fill="#000000" transform="translate(982.3671875,130.78515625)"/>
<path d="M0 0 C0.83144531 0.62261719 1.66289063 1.24523437 2.51953125 1.88671875 C36.98780449 28.64712616 54.14957542 64.05427033 59.65234375 106.859375 C62.20690967 129.03097974 62.16919297 151.45628426 61.984375 173.7421875 C61.96760809 176.09766568 61.95094784 178.45314463 61.93438721 180.80862427 C61.89836802 185.68740481 61.85722354 190.56611166 61.81298828 195.44482422 C61.7575278 201.66890499 61.7212356 207.89294545 61.68935776 214.11718559 C61.66142914 218.95763046 61.62038679 223.79790093 61.57575226 228.63821793 C61.55669854 230.9337027 61.54233111 233.22923178 61.53295135 235.52477646 C61.39914927 265.21316353 61.39914927 265.21316353 54.5625 273.53515625 C49.12715717 278.63079016 43.15464796 280.78163213 35.76953125 281.1328125 C26.78810893 280.7021096 19.7722417 277.08659517 13.75 270.5625 C6.96924091 256.75881185 8.61799652 240.56247015 8.75 225.625 C8.76191435 223.05021537 8.7729774 220.47542666 8.78320312 217.90063477 C8.86420289 202.12236708 9.18525255 186.36847927 9.76953125 170.6015625 C11.28593434 129.2331271 11.47658926 85.89797858 -16.875 53.125 C-29.15772014 40.23100918 -44.74975711 31.25103262 -62 27 C-62.81855469 26.77570313 -63.63710938 26.55140625 -64.48046875 26.3203125 C-87.45848525 20.98678244 -113.49470336 26.05344327 -133.51611328 38.17504883 C-140.27532564 42.45490346 -146.34158825 47.34158825 -152 53 C-152.69609375 53.69609375 -153.3921875 54.3921875 -154.109375 55.109375 C-177.78299179 80.25112306 -180.43974362 113.90765153 -180.1875 146.625 C-180.18061392 148.49690621 -180.17410894 150.36881385 -180.16796875 152.24072266 C-180.12360044 161.62936285 -179.95795144 170.99638317 -179.5 180.375 C-178.91878589 192.59310855 -178.82095239 204.81472244 -178.76782227 217.04498291 C-178.75610387 219.35780119 -178.73916554 221.67059998 -178.71655273 223.9833374 C-178.37208392 261.26801831 -178.37208392 261.26801831 -188 275 C-193.07392273 279.52326445 -197.81610982 281.51525116 -204.72265625 281.31640625 C-212.00042581 280.30525816 -219.01945755 277.45487982 -224 272 C-232.63584331 259.00911823 -232.44016067 243.68635659 -232.28125 228.70654297 C-232.25020161 225.76907395 -232.2402689 222.83214812 -232.234375 219.89453125 C-232.19859068 211.30642997 -232.04494223 202.75418139 -231.484375 194.18359375 C-230.6624836 181.45879264 -230.94247715 168.7072141 -231.02050781 155.96313477 C-231.08625835 144.14101503 -231.07503954 132.3411115 -230.578125 120.52734375 C-230.54098389 119.62196365 -230.50384277 118.71658356 -230.46557617 117.7837677 C-228.4893891 76.15887727 -212.94986565 37.8583791 -182.12890625 9.34375 C-159.91980158 -9.76846756 -132.04064635 -22.1100289 -103 -26 C-102.06929687 -26.12890625 -101.13859375 -26.2578125 -100.1796875 -26.390625 C-65.16604108 -30.36232221 -28.27700613 -21.26188363 0 0 Z " fill="#000000" transform="translate(668,126)"/>
<path d="M0 0 C1.08391022 -0.00426498 2.16782043 -0.00852997 3.28457642 -0.01292419 C4.48408432 -0.01247101 5.68359222 -0.01201782 6.91944885 -0.0115509 C8.80216492 -0.01658882 8.80216492 -0.01658882 10.72291565 -0.02172852 C14.17536479 -0.03058873 17.62778918 -0.03290748 21.08024859 -0.0335443 C23.95812305 -0.03449176 26.83599169 -0.03816817 29.71386391 -0.0417164 C36.50130796 -0.04986866 43.28873875 -0.05229993 50.07618713 -0.05158997 C57.08748388 -0.05098898 64.09870372 -0.06154309 71.109981 -0.07733363 C77.1210267 -0.09039114 83.13204721 -0.09577462 89.143107 -0.09513456 C92.73699744 -0.09487904 96.3308196 -0.09775972 99.92469597 -0.10831261 C103.93081326 -0.11975408 107.93675732 -0.11525779 111.94288635 -0.10920715 C113.14037003 -0.11482666 114.3378537 -0.12044617 115.57162476 -0.12623596 C116.6583548 -0.12204147 117.74508484 -0.11784698 118.86474609 -0.11352539 C119.81289405 -0.11407016 120.761042 -0.11461493 121.73792171 -0.1151762 C123.99586487 0.13371277 123.99586487 0.13371277 125.99586487 2.13371277 C126.0715124 4.85702393 125.56277778 6.49038213 123.74977112 8.54777527 C120.2455959 11.69060867 116.47881577 14.05647165 112.43336487 16.44621277 C105.59469017 20.70159689 101.57435046 26.0289968 99.42009854 33.82490647 C98.45632813 39.07003275 98.70942685 44.45497264 98.71739197 49.76931763 C98.71238553 51.16542002 98.70650871 52.56151952 98.69983923 53.95761496 C98.6840673 57.78414483 98.6806101 61.61060121 98.67919064 65.43715966 C98.67549168 69.56729409 98.66033373 73.69738844 98.64657593 77.82749939 C98.62431484 84.97994503 98.60929463 92.13237639 98.59920883 99.28484917 C98.58461602 109.62608679 98.55907748 119.96727466 98.53087755 130.30848307 C98.48542052 147.08688305 98.4488012 163.86529019 98.41773987 180.64372253 C98.38754987 196.94126138 98.35319752 213.23878269 98.31324768 229.53630066 C98.31078613 230.5410791 98.30832458 231.54585755 98.30578844 232.58108383 C98.29341375 237.62182157 98.28095724 242.6625591 98.26846004 247.70329654 C98.16490855 289.5134109 98.0756999 331.32354683 97.99586487 373.13371277 C102.08518169 373.18372323 106.17437628 373.21971634 110.26393127 373.24357605 C111.65068163 373.2535388 113.03741152 373.26711395 114.42408752 373.28459167 C132.37025559 373.51029614 132.37025559 373.51029614 147.93336487 365.44621277 C149.97947811 360.99290748 150.07695044 356.03922359 149.87086487 351.19621277 C149.91211487 350.51558777 149.95336487 349.83496277 149.99586487 349.13371277 C152.99586487 347.13371277 152.99586487 347.13371277 154.94093323 347.34196472 C157.24012873 348.2278256 158.90583787 349.32019202 160.87477112 350.80168152 C161.62129944 351.35799255 162.36782776 351.91430359 163.13697815 352.48747253 C163.93603577 353.09260681 164.73509338 353.69774109 165.55836487 354.32121277 C167.27564482 355.60529159 168.99309757 356.88913936 170.71070862 358.17277527 C171.58839905 358.83180847 172.46608948 359.49084167 173.37037659 360.16984558 C176.65094115 362.62371032 179.95402947 365.04582194 183.26002502 367.46525574 C186.39282461 369.76221014 189.51210285 372.07721995 192.63209534 374.39152527 C195.06652789 376.18579408 197.51692882 377.95673467 199.96852112 379.72746277 C201.54066179 380.88299735 203.11229656 382.03922062 204.68336487 383.19621277 C205.42086975 383.72029724 206.15837463 384.24438171 206.91822815 384.78434753 C211.8740644 388.47525762 211.8740644 388.47525762 212.51539612 391.94230652 C211.99586487 394.13371277 211.99586487 394.13371277 210.99586487 395.13371277 C208.21653697 395.2338253 205.46198611 395.26810641 202.68214417 395.26069641 C201.799948 395.2622564 200.91775183 395.26381639 200.00882244 395.26542366 C197.02922624 395.26943759 194.04968027 395.2662425 191.07008362 395.2631073 C188.94350657 395.26446117 186.81692976 395.26624102 184.69035339 395.26841736 C178.89713598 395.27299343 173.10393628 395.27120142 167.31071854 395.26803827 C161.26265157 395.26551557 155.21458618 395.26785196 149.16651917 395.26942444 C139.00774359 395.2712464 128.84897528 395.26883914 118.69020081 395.26408386 C106.92671089 395.25864119 95.1632383 395.26040383 83.3997488 395.26591027 C73.3199648 395.27044065 63.24018603 395.27109231 53.16040134 395.2684716 C47.131381 395.26690841 41.10236882 395.26671619 35.073349 395.27000809 C29.40668802 395.27288572 23.7400495 395.2709131 18.07339096 395.26511383 C15.98716138 395.26378565 13.90092993 395.26418132 11.81470108 395.2663765 C8.97963661 395.26908574 6.14464531 395.26570966 3.30958557 395.26069641 C2.4727357 395.26292713 1.63588583 395.26515785 0.77367687 395.26745617 C-4.8899853 395.2478626 -4.8899853 395.2478626 -6.00413513 394.13371277 C-6.18332643 391.14719111 -6.21066457 389.79548605 -5.00413513 387.13371277 C-1.93936175 384.383732 1.51115942 382.31102512 4.99586487 380.13371277 C12.40327721 374.99002576 17.69629233 370.21485026 19.99586487 361.13371277 C20.42626832 356.69358821 20.40510263 352.27626369 20.38354492 347.8180542 C20.38772217 346.46874977 20.39320183 345.11944886 20.39986473 343.77015442 C20.41428687 340.07721957 20.41008483 336.38450851 20.40269792 332.69156158 C20.39796054 328.70305989 20.41048111 324.71460621 20.42071533 320.72612 C20.43789726 312.91825262 20.43874464 305.11046573 20.43350243 297.30258436 C20.42945852 290.9555897 20.43090691 284.60861881 20.43625069 278.26162529 C20.43737332 276.90583424 20.43737332 276.90583424 20.43851863 275.52265347 C20.44005013 273.68637832 20.44158848 271.85010317 20.4431336 270.01382803 C20.45685634 252.8000515 20.45142244 235.58632043 20.43994839 218.37254494 C20.43001532 202.62986322 20.44295835 186.88729903 20.46688258 171.14463545 C20.49127365 154.97271902 20.50088149 138.80085733 20.49422985 122.62892288 C20.49073777 113.55252314 20.49296903 104.47621378 20.51048088 95.39982796 C20.52520291 87.6736989 20.52583825 79.94772389 20.50840997 72.22159786 C20.49989775 68.2811873 20.49775568 64.34105195 20.51306152 60.40065575 C20.52691215 56.79014877 20.5221412 53.18015265 20.50282229 49.5696752 C20.49728868 47.65202775 20.51133072 45.73435427 20.52617639 43.81675631 C20.44042314 33.75056066 18.19127614 26.42176882 10.99586487 19.13371277 C8.52484184 17.22883811 5.94873098 15.54322512 3.30836487 13.88371277 C-3.82177439 9.31607351 -3.82177439 9.31607351 -6.00413513 7.13371277 C-6.19163513 4.07121277 -6.19163513 4.07121277 -6.00413513 1.13371277 C-4.33101303 -0.53940933 -2.29773372 0.00406284 0 0 Z " fill="#000000" transform="translate(6.0041351318359375,29.866287231445313)"/>
<path d="M0 0 C0.80872559 0.3029599 1.61745117 0.6059198 2.45068359 0.9180603 C5.12980631 1.92583421 7.80113368 2.95273319 10.47265625 3.98046875 C12.38646405 4.70637171 14.30061597 5.43136797 16.21508789 6.15551758 C21.30060004 8.08410927 26.37885739 10.03110936 31.45507812 11.98400879 C34.47136881 13.14344931 37.48930198 14.2985009 40.5078125 15.45214844 C63.36337922 24.19284029 86.13632685 33.14025052 108.8430481 42.26065063 C111.16580695 43.19338276 113.48926593 44.12437338 115.81344604 45.05355835 C119.04226538 46.34582835 122.26769423 47.64619815 125.4921875 48.94921875 C126.45333466 49.33274002 127.41448181 49.71626129 128.40475464 50.11140442 C129.28930328 50.47102768 130.17385193 50.83065094 131.08520508 51.20117188 C131.85230301 51.51026489 132.61940094 51.81935791 133.40974426 52.13781738 C135.69310469 53.24452369 137.55739067 54.58624702 139.53515625 56.16796875 C132.47459561 61.32148581 124.99199691 64.91637198 117.03515625 68.48046875 C114.54658322 69.61090659 112.06163999 70.74912198 109.578125 71.890625 C108.97103195 72.16945526 108.3639389 72.44828552 107.7384491 72.73556519 C102.52512279 75.14402813 97.4123626 77.71249674 92.34765625 80.41796875 C91.65414063 80.78833252 90.960625 81.15869629 90.24609375 81.5402832 C87.20031789 83.08362379 87.20031789 83.08362379 84.53515625 85.16796875 C84.3775122 86.94666601 84.28414948 88.73115351 84.21875 90.515625 C84.17685547 91.59521484 84.13496094 92.67480469 84.09179688 93.78710938 C84.03282227 95.49157227 84.03282227 95.49157227 83.97265625 97.23046875 C83.92947266 98.37064453 83.88628906 99.51082031 83.84179688 100.68554688 C83.73532786 103.5128907 83.63331418 106.34032613 83.53515625 109.16796875 C79.93983067 108.58481432 77.14352489 107.62564015 73.9375 105.91015625 C73.06359619 105.45261963 72.18969238 104.99508301 71.28930664 104.52368164 C70.35981201 104.03504639 69.43031738 103.54641113 68.47265625 103.04296875 C58.1014974 97.72948324 47.66830864 93.57805794 36.53515625 90.16796875 C35.86436035 89.96091309 35.19356445 89.75385742 34.50244141 89.54052734 C19.54603744 85.01740594 4.12870427 82.7163133 -11.46484375 82.16796875 C-12.55539062 82.12671875 -13.6459375 82.08546875 -14.76953125 82.04296875 C-41.02138665 81.54881618 -64.30329393 87.3747436 -88.2746582 97.53442383 C-88.93958282 97.81525314 -89.60450745 98.09608246 -90.2895813 98.38542175 C-92.104181 99.15512068 -93.914911 99.93392471 -95.7253418 100.71337891 C-100.21236871 102.45874069 -104.85336045 103.78452376 -109.46484375 105.16796875 C-109.46484375 98.23796875 -109.46484375 91.30796875 -109.46484375 84.16796875 C-112.43484375 83.17796875 -115.40484375 82.18796875 -118.46484375 81.16796875 C-121.05188584 79.98359521 -123.57264521 78.78019856 -126.09765625 77.48046875 C-126.77859344 77.13669189 -127.45953064 76.79291504 -128.16110229 76.4387207 C-130.30698983 75.35422104 -132.44859691 74.2615981 -134.58984375 73.16796875 C-136.73892202 72.07577457 -138.88889121 70.9853895 -141.04000854 69.8972168 C-142.36925323 69.2242454 -143.69724903 68.54879889 -145.02371216 67.87036133 C-149.11090488 65.7941302 -153.2376631 63.93353818 -157.46484375 62.16796875 C-158.12298226 72.89797698 -158.56880466 83.60361646 -158.58984375 94.35546875 C-158.59435547 95.297854 -158.59886719 96.24023926 -158.60351562 97.21118164 C-158.69821403 108.04154766 -158.69821403 108.04154766 -155.46484375 118.16796875 C-155.11940169 122.31327344 -155.64827108 124.53482341 -157.46484375 128.16796875 C-158.36795614 133.58664308 -156.16111116 137.12703188 -153.55859375 141.703125 C-152.36033421 144.40348845 -152.2566183 146.24760685 -152.46484375 149.16796875 C-159.55918608 149.26529967 -166.44678518 149.26884068 -173.46484375 148.16796875 C-173.10234576 144.4523644 -172.37182326 141.79269066 -170.40234375 138.66796875 C-168.40169267 135.3723508 -167.94430034 133.07204432 -168.46484375 129.16796875 C-168.79484375 128.50796875 -169.12484375 127.84796875 -169.46484375 127.16796875 C-170.88526196 124.32713234 -170.77936647 122.31319597 -170.46484375 119.16796875 C-169.97395264 118.38728027 -169.48306152 117.6065918 -168.97729492 116.80224609 C-166.67084548 111.26006587 -166.98382591 105.84121715 -166.953125 99.89453125 C-166.9351738 98.61565033 -166.9172226 97.33676941 -166.89872742 96.01913452 C-166.85382964 92.63581914 -166.82148095 89.25286316 -166.79528809 85.86938477 C-166.76539378 82.41018672 -166.7188942 78.95121526 -166.67382812 75.4921875 C-166.58892042 68.71755283 -166.52056103 61.94290299 -166.46484375 55.16796875 C-160.66496747 52.16197096 -154.81849922 49.62898559 -148.72265625 47.2890625 C-147.31288513 46.74268631 -147.31288513 46.74268631 -145.87463379 46.18527222 C-142.78128106 44.98787689 -139.68566748 43.79645941 -136.58984375 42.60546875 C-134.40016757 41.76016594 -132.21055278 40.91470409 -130.02099609 40.0690918 C-109.58773889 32.1860091 -89.12821134 24.3713666 -68.63800049 16.63754272 C-62.45789502 14.3039931 -56.28425522 11.95425146 -50.11502075 9.59211731 C-46.13632245 8.0714455 -42.15350528 6.56179387 -38.1696167 5.05477905 C-36.30527666 4.34699092 -34.44263328 3.634715 -32.58184814 2.91763306 C-30.02389811 1.93274655 -27.46021452 0.96452716 -24.89453125 0 C-24.15414612 -0.28959595 -23.41376099 -0.57919189 -22.65093994 -0.87756348 C-14.34241865 -3.95688038 -8.14225781 -3.17112666 0 0 Z " fill="#4D90FC" transform="translate(599.46484375,2.83203125)"/>
</svg>
