<?xml version="1.0" encoding="UTF-8"?>
<svg version="1.1" xmlns="http://www.w3.org/2000/svg" width="1170" height="1170">
<path d="M0 0 C2.25685491 0.01218874 4.51368693 0.01956489 6.77056503 0.02602386 C27.82767288 0.0953134 48.78046974 0.30501816 69.68587875 3.10829926 C71.94642293 3.41044203 74.20842138 3.69987427 76.47066879 3.98897552 C152.23299158 13.79467735 226.9334063 37.41279061 298.77047348 79.38692474 C300.34586899 80.32471771 300.34586899 80.32471771 301.95309067 81.28145599 C328.27173764 97.0307083 353.29765352 114.62033951 376.77047348 134.38692474 C377.79889194 135.24136516 378.82755142 136.09551552 379.85641098 136.94942474 C387.15884829 143.0384331 394.19272621 149.37341933 401.13668442 155.86641693 C402.77975796 157.39556547 404.43326813 158.91251675 406.09078598 160.42598724 C415.06320044 168.62537335 423.93945298 176.91106977 431.83687973 186.17208099 C433.86914391 188.49994723 435.96374852 190.75791167 438.07320786 193.01558685 C443.91395674 199.27081124 449.41405393 205.70890494 454.77047348 212.38692474 C455.75323998 213.57965816 456.73772279 214.77097875 457.72359848 215.96114349 C471.52033571 232.66535265 484.01715748 250.19283224 495.77047348 268.38692474 C496.30495102 269.21353607 496.83942856 270.0401474 497.39010239 270.89180756 C541.4461361 339.48966749 570.29989219 417.3717377 583.58297348 507.51192474 C583.73216232 508.58176102 583.73216232 508.58176102 583.88436508 509.67321014 C587.32381521 534.67160081 588.1483126 559.63052616 588.08297348 584.82442474 C588.08075051 586.34155521 588.07857402 587.85868575 588.07644272 589.37581635 C588.03544747 610.44241516 587.84131985 631.37766421 585.04909897 652.2951889 C584.74746745 654.55963883 584.45786903 656.82547641 584.1684227 659.09151459 C574.36354169 734.85170242 550.74333343 809.55204147 508.77047348 881.38692474 C508.14527817 882.43718842 507.52008286 883.48745209 506.87594223 884.56954193 C491.12668992 910.88818891 473.53705871 935.91410478 453.77047348 959.38692474 C452.91603306 960.4153432 452.0618827 961.44400269 451.20797348 962.47286224 C445.11896513 969.77529955 438.78397889 976.80917747 432.29098129 983.75313568 C430.76183275 985.39620922 429.24488148 987.04971939 427.73141098 988.70723724 C419.55291223 997.6567951 411.29047217 1006.51127013 402.05172348 1014.38692474 C399.57771417 1016.55591921 397.18147235 1018.79535038 394.78365707 1021.04781342 C388.32133938 1027.1152021 381.71199085 1032.86761785 374.77047348 1038.38692474 C373.6537069 1039.29469595 372.53787127 1040.20361327 371.42281723 1041.11348724 C354.90467405 1054.54248809 337.64885416 1066.83755741 319.77047348 1078.38692474 C318.94386215 1078.92140228 318.11725082 1079.45587982 317.26559067 1080.00655365 C243.71879831 1127.24097126 160.58776872 1155.87654503 74.09066391 1167.08553314 C72.61768591 1167.27687226 71.14506102 1167.47096579 69.6729393 1167.6687851 C48.01599173 1170.57872459 26.28771167 1170.69196939 4.47527313 1170.75439453 C2.25810282 1170.76175825 0.04099436 1170.77361536 -2.17615128 1170.78627777 C-30.33700044 1170.92413348 -58.25815996 1169.05397907 -86.10452652 1164.69942474 C-87.32817413 1164.51192657 -87.32817413 1164.51192657 -88.5765419 1164.32064056 C-174.88379047 1151.00751346 -257.27832838 1117.76845414 -371.22952652 1036.38692474 C-371.72871597 1035.97265228 -372.22790543 1035.55837982 -372.74222183 1035.13155365 C-380.5848332 1028.62175239 -388.15169676 1021.86803585 -395.59573746 1014.90743256 C-397.238811 1013.37828402 -398.89232117 1011.86133274 -400.54983902 1010.34786224 C-409.49939687 1002.1693635 -418.3538719 993.90692343 -426.22952652 984.66817474 C-428.39852099 982.19416543 -430.63795215 979.79792361 -432.89041519 977.40010834 C-438.95780387 970.93779064 -444.71021963 964.32844211 -450.22952652 957.38692474 C-451.13729773 956.27015817 -452.04621504 955.15432253 -452.95608902 954.03926849 C-466.38508986 937.52112532 -478.68015919 920.26530542 -490.22952652 902.38692474 C-490.76400406 901.56031342 -491.2984816 900.73370209 -491.84915543 899.88204193 C-535.90077212 831.29105956 -564.80435094 753.37249264 -578.04202652 663.19942474 C-578.14148575 662.48193054 -578.24094498 661.76443634 -578.34341812 661.02519989 C-581.55565872 637.54000892 -582.58458408 614.13821626 -582.54520035 590.46138763 C-582.54059165 587.46937177 -582.547429 584.47776474 -582.56570816 581.4858017 C-582.73799694 552.95110149 -580.95525543 524.73350166 -576.54202652 496.51192474 C-576.41702774 495.69615967 -576.29202896 494.88039459 -576.16324234 494.03990936 C-565.07951472 422.18556384 -540.36094533 351.94437521 -503.22952652 289.38692474 C-502.75563492 288.58512787 -502.28174332 287.78333099 -501.79349136 286.95723724 C-480.44395723 250.99383873 -455.08782013 217.54090067 -426.63577652 186.90645599 C-425.17035158 185.32298293 -423.71471062 183.73095145 -422.26077652 182.13692474 C-414.0612043 173.16318375 -405.77369853 164.28318613 -396.51077652 156.38692474 C-394.03676721 154.21793028 -391.64052539 151.97849911 -389.24271011 149.72603607 C-382.78039242 143.65864739 -376.17104389 137.90623163 -369.22952652 132.38692474 C-368.11275994 131.47915353 -366.99692431 130.57023622 -365.88187027 129.66036224 C-349.36372709 116.2313614 -332.1079072 103.93629207 -314.22952652 92.38692474 C-313.40291519 91.8524472 -312.57630386 91.31796967 -311.72464371 90.76729584 C-243.53871552 46.97581964 -166.38799527 18.42618204 -86.35452652 6.13692474 C-85.59707138 6.01790802 -84.83961624 5.8988913 -84.05920792 5.77626801 C-56.15798686 1.44105932 -28.2010243 -0.16105973 0 0 Z " fill="#4E91FC" transform="translate(582.2295265197754,-0.38692474365234375)"/>
<path d="M0 0 C31.30474086 -1.31749138 62.52656181 3.76342503 92.06933594 14.13085938 C93.50212891 14.63020996 93.50212891 14.63020996 94.96386719 15.13964844 C129.00431257 27.18092632 160.23508729 45.6067709 186.83886719 70.08398438 C188.90229868 71.97757125 191.00508175 73.80912101 193.13183594 75.63085938 C200.38287769 81.97916099 206.81797183 88.80855543 212.83105469 96.33789062 C214.26543175 98.12773286 215.72451328 99.89821644 217.21386719 101.64257812 C268.0818684 161.49267685 279.31075646 245.55384323 279.20214844 321.52539062 C279.20282637 323.24948642 279.2038004 324.97358213 279.20504761 326.69767761 C279.20650916 330.29528725 279.20442541 333.89287183 279.19970703 337.49047852 C279.19409144 341.97863793 279.19733458 346.46673688 279.20316124 350.95489407 C279.22204802 368.28183455 279.11518034 385.58592791 278.55371094 402.90429688 C278.06731872 417.98940989 278.0177066 433.05815214 278.07714844 448.15039062 C278.08301908 449.8458285 278.08301908 449.8458285 278.08900833 451.57551765 C278.12565544 462.08224543 278.1712329 472.58889383 278.24072266 483.09545898 C278.27860495 488.92178259 278.30144618 494.74800951 278.31502914 500.5744381 C278.3229851 502.75782728 278.33644966 504.94120475 278.35596085 507.12452126 C278.52495966 526.30268796 278.14235033 547.69419729 265.06933594 563.13085938 C259.22866303 568.89167934 252.87765948 571.84369689 245.06933594 574.13085938 C244.44929687 574.32421875 243.82925781 574.51757812 243.19042969 574.71679688 C230.27253041 577.23852307 217.89887399 574.31791266 207.06933594 567.13085938 C194.46082362 558.08511935 190.59114287 545.30402133 188.10149002 530.65688515 C186.68124243 521.59226197 186.67280702 512.62067915 186.74121094 503.46679688 C186.74428596 501.61862342 186.74614878 499.7704476 186.74688721 497.92227173 C186.75145128 494.06820624 186.76570557 490.21435418 186.78808594 486.36035156 C186.81608897 481.52459003 186.82718927 476.68899532 186.83190155 471.85316086 C186.85098419 453.99592275 186.96523005 436.14437843 187.52246094 418.29492188 C187.57983429 416.45019791 187.57983429 416.45019791 187.6383667 414.56820679 C187.84279517 408.71377389 188.15122731 402.8847238 188.59082031 397.04321289 C189.25085292 387.48959099 189.25343586 377.94217289 189.27246094 368.36914062 C189.27528831 367.39076925 189.27811569 366.41239788 189.28102875 365.40437889 C189.29593431 360.20814126 189.30521348 355.01193068 189.30957031 349.81567383 C189.31391913 345.60497197 189.32768276 341.39447915 189.35058594 337.18383789 C189.67271132 276.75426175 189.01499597 209.94064317 150.06933594 160.13085938 C148.96138672 158.70773437 148.96138672 158.70773437 147.83105469 157.25585938 C140.07547321 147.55793866 131.8264179 137.86649042 122.06933594 130.13085938 C121.52712402 129.69805664 120.98491211 129.26525391 120.42626953 128.81933594 C110.82621114 121.21346803 100.94862278 114.748762 90.06933594 109.13085938 C89.17561279 108.660271 88.28188965 108.18968262 87.36108398 107.70483398 C80.20946394 104.01577096 72.99247535 101.0457808 65.38183594 98.44335938 C63.68281128 97.85929321 63.68281128 97.85929321 61.94946289 97.26342773 C53.78044337 94.53267936 45.80901927 92.49801075 37.26000977 91.4309082 C35.57244628 91.19976861 33.89072701 90.92567808 32.21264648 90.63354492 C23.93313918 89.21766929 15.90002479 88.78084852 7.50683594 88.81835938 C5.53565796 88.8257312 5.53565796 88.8257312 3.5246582 88.83325195 C-7.20687447 88.96140731 -17.43690519 89.92680764 -27.93066406 92.13085938 C-28.79481934 92.3077832 -29.65897461 92.48470703 -30.54931641 92.66699219 C-42.41860607 95.14752592 -53.78800004 98.33380307 -64.93066406 103.13085938 C-65.66462402 103.44506836 -66.39858398 103.75927734 -67.15478516 104.08300781 C-85.16616478 111.91865959 -101.36980675 121.94630227 -115.93066406 135.13085938 C-116.80980469 135.89011719 -117.68894531 136.649375 -118.59472656 137.43164062 C-144.92462236 160.37859316 -163.05089849 192.23800094 -171.39257812 225.98388672 C-171.90480944 228.02769896 -172.45549317 230.05704351 -173.01660156 232.08789062 C-176.51297009 245.20696493 -177.61889464 258.65201036 -178.93066406 272.13085938 C-179.01473007 272.78044617 -179.09879608 273.43003296 -179.18540955 274.0993042 C-180.24391253 282.90019141 -180.09392454 291.74251994 -180.09863281 300.59179688 C-180.10258026 302.4089258 -180.1067247 304.22605431 -180.11105347 306.04318237 C-180.12034764 310.86948044 -180.12144724 315.69574345 -180.1193428 320.52204895 C-180.11816155 323.51221834 -180.1186956 326.50238422 -180.11935425 329.49255371 C-180.11813455 355.23154552 -179.83325716 380.87590479 -178.30641174 406.57577515 C-176.99374764 428.70562091 -176.80546697 450.89111696 -176.70050049 473.05383301 C-176.68753069 475.47435631 -176.66978537 477.89485996 -176.64666748 480.31530762 C-176.0565138 546.80595519 -176.0565138 546.80595519 -195.93066406 567.13085938 C-205.12982396 575.26116451 -213.49636402 576.13898507 -225.42382812 575.42089844 C-237.23623341 574.05421189 -247.89389051 568.08338528 -255.55566406 559.13085938 C-278.22438814 528.23307793 -272.58346784 473.82190106 -269.66149712 437.58239365 C-268.07158152 417.31380063 -267.60113556 397.06883058 -267.48925781 376.74804688 C-267.4852457 376.04451741 -267.48123359 375.34098795 -267.4770999 374.61613941 C-267.42483044 365.21553076 -267.39737568 355.8149107 -267.37768555 346.41418457 C-267.35457057 335.4116833 -267.31984679 324.40924621 -267.265863 313.40685189 C-267.24345528 308.68745911 -267.23623909 303.96820133 -267.23277283 299.24874878 C-266.99442595 215.73248115 -245.39139207 137.75672223 -185.36816406 77.31835938 C-179.17916549 71.17874291 -172.89742712 65.38727314 -165.93066406 60.13085938 C-165.26905273 59.61990723 -164.60744141 59.10895508 -163.92578125 58.58251953 C-153.1136406 50.24410161 -142.05782397 42.87268547 -130.08105469 36.31542969 C-128.15593874 35.25495483 -126.2523924 34.16538797 -124.35253906 33.06054688 C-89.10147659 13.18152306 -45.95505918 1.34765572 -5.46289062 0.20703125 C-3.64144378 0.15224033 -1.82045685 0.08128664 0 0 Z " fill="#FEFEFE" transform="translate(580.9306640625,394.869140625)"/>
<path d="M0 0 C0.62104111 0.21813858 1.24208221 0.43627716 1.88194275 0.661026 C3.95268158 1.39153246 6.01941958 2.1326432 8.0859375 2.875 C8.8172287 3.13554169 9.5485199 3.39608337 10.30197144 3.66452026 C44.51685862 15.85619996 78.35331603 29.10010008 112.19819641 42.27487183 C119.29931117 45.03793708 126.40596245 47.78635607 133.515625 50.52734375 C163.22683509 61.98887013 192.81864206 73.73499664 222.35998535 85.62719727 C225.33028945 86.82242809 228.30124573 88.01602054 231.27246094 89.20898438 C235.59939691 90.9465555 239.92486662 92.68771679 244.24890137 94.43249512 C245.77138056 95.04649678 247.29423048 95.65958027 248.81750488 96.27160645 C257.82226763 99.8920675 266.68944898 103.71505458 275.4609375 107.875 C273.01147066 110.45962388 270.78214791 112.47475481 267.63671875 114.14453125 C266.49154785 114.75300903 266.49154785 114.75300903 265.32324219 115.3737793 C264.48180664 115.80730713 263.64037109 116.24083496 262.7734375 116.6875 C261.86625977 117.15905518 260.95908203 117.63061035 260.02441406 118.11645508 C251.02503674 122.71763491 241.82923896 126.86113434 232.61410522 131.00552368 C222.26036891 135.66351642 211.95798132 140.41261049 201.73034668 145.3421936 C200.32408262 146.01948902 198.91664793 146.69436038 197.50793457 147.36654663 C189.13862995 151.36468402 181.1644307 155.6757061 173.4609375 160.875 C171.9759375 161.865 171.9759375 161.865 170.4609375 162.875 C169.9863544 164.88576785 169.9863544 164.88576785 170.02856445 167.23291016 C169.99887321 168.58408432 169.99887321 168.58408432 169.96858215 169.96255493 C169.96219223 170.93655243 169.95580231 171.91054993 169.94921875 172.9140625 C169.93126755 173.91005463 169.91331635 174.90604675 169.89482117 175.93222046 C169.84052752 179.12143689 169.80676133 182.31050209 169.7734375 185.5 C169.74028126 187.65887531 169.70579321 189.8177306 169.66992188 191.9765625 C169.5847905 197.27590603 169.51652175 202.57526869 169.4609375 207.875 C165.0451682 207.32577699 161.74677427 206.23490315 157.828125 204.14453125 C156.77367187 203.58830078 155.71921875 203.03207031 154.6328125 202.45898438 C153.54484375 201.87439453 152.456875 201.28980469 151.3359375 200.6875 C149.18800575 199.54722389 147.0395693 198.40789798 144.890625 197.26953125 C143.82344238 196.70403564 142.75625977 196.13854004 141.65673828 195.5559082 C133.20272502 191.10931681 124.75692693 186.98698556 115.8359375 183.5625 C114.85939209 183.18569092 113.88284668 182.80888184 112.87670898 182.4206543 C42.50078364 155.52614146 -39.56069941 145.05132642 -112.5390625 168.875 C-113.38871582 169.14586426 -114.23836914 169.41672852 -115.11376953 169.69580078 C-130.43648036 174.66524746 -145.18010889 181.29532724 -159.93994141 187.70849609 C-188.04635558 199.875 -188.04635558 199.875 -193.5390625 199.875 C-193.5390625 187.335 -193.5390625 174.795 -193.5390625 161.875 C-195.1890625 161.545 -196.8390625 161.215 -198.5390625 160.875 C-200.5008202 160.00898018 -202.43423424 159.07738687 -204.34375 158.1015625 C-206.03552368 157.24449707 -206.03552368 157.24449707 -207.76147461 156.37011719 C-208.35588348 156.06569702 -208.95029236 155.76127686 -209.56271362 155.44763184 C-212.7343139 153.82421583 -215.91653312 152.22183971 -219.09765625 150.6171875 C-219.73802322 150.29359253 -220.3783902 149.96999756 -221.03816223 149.63659668 C-226.48214673 146.89044622 -231.96673001 144.23656435 -237.4765625 141.625 C-247.25447696 136.98026616 -257.00361019 132.27769008 -266.74124146 127.54919434 C-268.43246437 126.72828668 -270.1240913 125.90821082 -271.81613159 125.08898926 C-274.19879451 123.93519522 -276.58004292 122.77853154 -278.9609375 121.62109375 C-279.68175003 121.27261887 -280.40256256 120.92414398 -281.1452179 120.56510925 C-284.07867534 119.13554163 -286.81911386 117.68829909 -289.5390625 115.875 C-289.58565189 126.95931234 -289.62106572 138.04360091 -289.64268684 149.12799168 C-289.65307021 154.27636262 -289.66712844 159.42466598 -289.68994141 164.57299805 C-289.7118659 169.55267426 -289.72367194 174.53228596 -289.72881699 179.51200676 C-289.73247789 181.40034944 -289.73962529 183.28868908 -289.75052261 185.17700386 C-290.39763697 204.40856353 -290.39763697 204.40856353 -285.4140625 222.625 C-282.91980232 227.58538961 -282.64405424 232.41889194 -283.5390625 237.875 C-284.5290625 239.2671875 -284.5290625 239.2671875 -285.5390625 240.6875 C-288.55775544 245.49854187 -288.74065518 250.25582762 -288.02099609 255.86181641 C-286.58643195 261.85442832 -282.79887163 267.06167416 -279.54785156 272.20751953 C-277.11595209 276.22733401 -276.45138462 279.23144449 -276.5390625 283.875 C-289.25366702 283.98927673 -301.85962501 283.89226146 -314.5390625 282.875 C-314.5390625 276.17760848 -312.6291098 271.86168076 -309.4765625 266.125 C-305.67715081 259.03891438 -303.92867339 253.007465 -305.5390625 244.875 C-306.39986522 242.8411515 -306.39986522 242.8411515 -307.5390625 241.125 C-310.13430815 236.90772582 -310.53622169 233.71122205 -309.5390625 228.875 C-308.43482659 226.64286598 -307.20533757 224.70352765 -305.73046875 222.69921875 C-299.07208031 212.50424366 -302.41028484 191.53860984 -302.44140625 179.84765625 C-302.44327575 177.76159194 -302.44469714 175.67552719 -302.44569397 173.58946228 C-302.44947727 168.14969632 -302.45927084 162.70995787 -302.47039795 157.27020264 C-302.48070305 151.69901908 -302.48521092 146.127831 -302.49023438 140.55664062 C-302.50089766 129.66274845 -302.51792256 118.76887653 -302.5390625 107.875 C-295.1633671 104.07310441 -287.77926602 100.60525097 -280.0390625 97.6171875 C-279.06617783 97.23639542 -278.09329315 96.85560333 -277.09092712 96.46327209 C-273.90917231 95.21978712 -270.7242388 93.98469167 -267.5390625 92.75 C-265.27273329 91.86696307 -263.00654131 90.9835739 -260.74047852 90.09985352 C-253.67714815 87.34837789 -246.60877017 84.61004142 -239.5390625 81.875 C-238.42859558 81.44519836 -237.31812866 81.01539673 -236.17401123 80.5725708 C-171.55865031 55.57009398 -106.77373654 30.96575221 -41.7890625 6.9375 C-40.84502563 6.58806335 -39.90098877 6.23862671 -38.92834473 5.87860107 C-36.3044782 4.90808126 -33.67979055 3.9398258 -31.0546875 2.97265625 C-29.94395874 2.56203194 -29.94395874 2.56203194 -28.81079102 2.14311218 C-27.41887923 1.63182318 -26.02468015 1.12670946 -24.62805176 0.62844849 C-23.16361627 0.10026162 -21.70729124 -0.45070549 -20.25769043 -1.01834106 C-12.78214277 -3.80633652 -7.45744968 -2.63602025 0 0 Z " fill="#FEFEFE" transform="translate(604.5390625,206.125)"/>
</svg>
